<svg id="fd11d78a-3314-4297-a760-609e28106eb8" data-name="Calque 1" xmlns="http://www.w3.org/2000/svg" xmlns:xlink="http://www.w3.org/1999/xlink" viewBox="0 0 1300 1300"><defs><style>.e8d7a428-51e6-45a5-ad0d-e3a798332d44{mask:url(#bb65f00c-c037-4b12-9f41-8391e29dd025);}.b94afdc0-ac14-4f49-99a0-94b650a74202,.e336ff5f-1f38-4310-bbf0-1aad9887a5da{mix-blend-mode:multiply;}.e336ff5f-1f38-4310-bbf0-1aad9887a5da{fill:url(#b8e7439a-ea17-41e2-a057-6d0f8222e866);}.bf373782-0124-45c8-8dc8-66716d4a27e7{mask:url(#b958f836-d9cd-453f-ac4e-1d062c3d17a0);}.b94afdc0-ac14-4f49-99a0-94b650a74202{fill:url(#ff225b64-3461-4168-9855-8d91b4a426b5);}.f37e93be-195b-474d-861d-3127bb8b2104{fill:#fff;}.a501119c-0ff9-43d6-a6ae-e8ba3b50ec57{fill:url(#a5ba3f96-a813-42cf-b967-95546d2c6978);}.e05b472a-b5b5-4498-bda1-c589494a78c2{fill:url(#a75fce7e-7b2e-4684-b3b3-a1f3fd587416);}.f3fe010e-4516-46b2-9973-3543648a1fcf{fill:url(#af90a371-a11b-41e9-8104-f83d94a662d9);}.b5109a49-1c87-4812-9d0f-e523c6f66ad9{fill:url(#a8aa871e-c820-41a9-910b-406784b6b7af);}.bd6d7cc0-225f-4454-9b83-599a5493fc64{fill:url(#be044afb-c475-4ff4-a8ae-b15425adc3f4);}.b2edf158-163f-4746-b9c3-c195de699c3a{opacity:0.7;}.f6357d0d-81d6-4777-a1ba-877aca5278b3{mask:url(#fc420a59-75d7-4d19-9f0f-e364271c4735);}.b1d9e159-5aee-4ded-8138-b44bc4cf18c2{fill:url(#aa256986-305e-41b5-bc45-7549ba840542);}.abcba510-f144-4956-aae8-2e0b92653d9c{mask:url(#a52fb7e1-395c-45fe-a10c-9056b9408bdd);}.f45ec815-74e7-48b7-9216-b2de684949df{fill:url(#f763c569-00f9-479c-a6cc-b38f1a668be4);}.e83a149d-20da-4eb0-bfd3-4f5b13a2e0a7{fill:#e84529;}.e3c172a8-e547-461d-9d1f-de135eda9242{fill:#216fb6;}.e80d4bd2-cba4-48ab-844d-08066a127852{filter:url(#a2280d22-baa4-43f0-9324-94462117ca07);}.e73232cf-8776-45e8-8646-ed9f856b1e25{filter:url(#a953849b-5c15-4862-9e65-85d77e7c4637);}.ab4afe55-13a9-4841-99bb-e93a511f8819{filter:url(#a958449a-e914-4f66-b368-6a74c00f6d72);}.b4273665-b509-405d-9da8-30b47ae0f1ac{filter:url(#a5880719-9b42-49e5-a49f-1db47fbe1d7b);}</style><filter id="a5880719-9b42-49e5-a49f-1db47fbe1d7b" x="326.12" y="-9359.75" width="272.39" height="32766" filterUnits="userSpaceOnUse" color-interpolation-filters="sRGB"><feFlood flood-color="#fff" result="bg"/><feBlend in="SourceGraphic" in2="bg"/></filter><mask id="bb65f00c-c037-4b12-9f41-8391e29dd025" x="326.12" y="-9359.75" width="272.39" height="32766" maskUnits="userSpaceOnUse"><g class="b4273665-b509-405d-9da8-30b47ae0f1ac"/></mask><linearGradient id="b8e7439a-ea17-41e2-a057-6d0f8222e866" x1="262.77" y1="234.01" x2="516.33" y2="388.68" gradientUnits="userSpaceOnUse"><stop offset="0"/><stop offset="0.16" stop-color="#030303"/><stop offset="0.29" stop-color="#0d0d0d"/><stop offset="0.41" stop-color="#1e1e1e"/><stop offset="0.52" stop-color="#363636"/><stop offset="0.63" stop-color="#555"/><stop offset="0.74" stop-color="#7b7b7b"/><stop offset="0.84" stop-color="#a7a7a7"/><stop offset="0.94" stop-color="#dadada"/><stop offset="1" stop-color="#fff"/></linearGradient><filter id="a958449a-e914-4f66-b368-6a74c00f6d72" x="352.83" y="-9359.75" width="109.41" height="32766" filterUnits="userSpaceOnUse" color-interpolation-filters="sRGB"><feFlood flood-color="#fff" result="bg"/><feBlend in="SourceGraphic" in2="bg"/></filter><mask id="b958f836-d9cd-453f-ac4e-1d062c3d17a0" x="352.83" y="-9359.75" width="109.41" height="32766" maskUnits="userSpaceOnUse"><g class="ab4afe55-13a9-4841-99bb-e93a511f8819"/></mask><linearGradient id="ff225b64-3461-4168-9855-8d91b4a426b5" x1="211.35" y1="318.31" x2="464.9" y2="472.98" xlink:href="#b8e7439a-ea17-41e2-a057-6d0f8222e866"/><linearGradient id="a5ba3f96-a813-42cf-b967-95546d2c6978" x1="343.94" y1="473.24" x2="974.61" y2="473.24" gradientUnits="userSpaceOnUse"><stop offset="0" stop-color="#0073ad"/><stop offset="0.28" stop-color="#007fc3"/><stop offset="0.56" stop-color="#249bd8"/><stop offset="0.73" stop-color="#82b8e5"/><stop offset="0.95" stop-color="#ccdff4"/></linearGradient><linearGradient id="a75fce7e-7b2e-4684-b3b3-a1f3fd587416" x1="364.57" y1="519.48" x2="657.93" y2="519.48" gradientUnits="userSpaceOnUse"><stop offset="0" stop-color="#e5241d"/><stop offset="1" stop-color="#f4a18a"/></linearGradient><linearGradient id="af90a371-a11b-41e9-8104-f83d94a662d9" x1="458.98" y1="582.6" x2="831.99" y2="582.6" xlink:href="#a75fce7e-7b2e-4684-b3b3-a1f3fd587416"/><linearGradient id="a8aa871e-c820-41a9-910b-406784b6b7af" x1="316.31" y1="391.63" x2="974.66" y2="391.63" xlink:href="#a5ba3f96-a813-42cf-b967-95546d2c6978"/><linearGradient id="be044afb-c475-4ff4-a8ae-b15425adc3f4" x1="429.83" y1="316.48" x2="911.94" y2="316.48" gradientUnits="userSpaceOnUse"><stop offset="0" stop-color="#0073ad"/><stop offset="0.03" stop-color="#007fc3"/><stop offset="0.07" stop-color="#249bd8"/><stop offset="0.11" stop-color="#82b8e5"/><stop offset="0.16" stop-color="#9ac5e8"/><stop offset="0.23" stop-color="#b6d3ec"/><stop offset="0.31" stop-color="#cddfef"/><stop offset="0.4" stop-color="#dfe9f1"/><stop offset="0.51" stop-color="#eceff3"/><stop offset="0.66" stop-color="#f3f3f4"/><stop offset="1" stop-color="#f5f4f4"/></linearGradient><filter id="a953849b-5c15-4862-9e65-85d77e7c4637" x="326.12" y="259.78" width="272.39" height="183.76" filterUnits="userSpaceOnUse" color-interpolation-filters="sRGB"><feFlood flood-color="#fff" result="bg"/><feBlend in="SourceGraphic" in2="bg"/></filter><mask id="fc420a59-75d7-4d19-9f0f-e364271c4735" x="326.12" y="259.78" width="272.39" height="183.76" maskUnits="userSpaceOnUse"><g class="e73232cf-8776-45e8-8646-ed9f856b1e25"><g transform="translate(0 0)"><g class="e8d7a428-51e6-45a5-ad0d-e3a798332d44"><path class="e336ff5f-1f38-4310-bbf0-1aad9887a5da" d="M597.24,267.77a255.91,255.91,0,0,0-63.43-8c-73.53,0-142,32-178.82,83.56-21.23,29.76-30.81,63.77-28.54,100.2,10.64-28.52,29.28-53.23,55.31-73,33.15-25.12,76.53-40.31,123.75-43.61a315.72,315.72,0,0,1,93-58.84Z"/></g></g></g></mask><linearGradient id="aa256986-305e-41b5-bc45-7549ba840542" x1="262.77" y1="234.01" x2="516.33" y2="388.68" gradientUnits="userSpaceOnUse"><stop offset="0" stop-color="#fefeff"/><stop offset="0.91" stop-color="#fefeff"/><stop offset="1" stop-color="#fefeff"/></linearGradient><filter id="a2280d22-baa4-43f0-9324-94462117ca07" x="352.83" y="375.41" width="109.41" height="125.15" filterUnits="userSpaceOnUse" color-interpolation-filters="sRGB"><feFlood flood-color="#fff" result="bg"/><feBlend in="SourceGraphic" in2="bg"/></filter><mask id="a52fb7e1-395c-45fe-a10c-9056b9408bdd" x="352.83" y="375.41" width="109.41" height="125.15" maskUnits="userSpaceOnUse"><g class="e80d4bd2-cba4-48ab-844d-08066a127852"><g transform="translate(0 0)"><g class="bf373782-0124-45c8-8dc8-66716d4a27e7"><path class="b94afdc0-ac14-4f49-99a0-94b650a74202" d="M375.27,432.48a115.85,115.85,0,0,0-22.44,68.08c15.06-30.36,42-54.22,76.78-68.77a316.72,316.72,0,0,1,32.63-56.38C425.51,385.9,394.8,405.62,375.27,432.48Z"/></g></g></g></mask><linearGradient id="f763c569-00f9-479c-a6cc-b38f1a668be4" x1="211.35" y1="318.31" x2="464.9" y2="472.98" xlink:href="#aa256986-305e-41b5-bc45-7549ba840542"/></defs><title>RuWave</title><rect class="f37e93be-195b-474d-861d-3127bb8b2104" width="1300" height="1300"/><path class="a501119c-0ff9-43d6-a6ae-e8ba3b50ec57" d="M974.61,513.19C894.74,720.58,679.33,446.58,548.68,429c-106.3-14.29-191.17,39.05-196.52,122.3-43-132.71,89.83-218.75,229.09-189.59C724.91,397.12,876.93,651.19,974.61,513.19Z" transform="translate(0 0)"/><path class="e05b472a-b5b5-4498-bda1-c589494a78c2" d="M476.4,446.25c-41.58,8.35-103.13,46-111.51,111.22-5.82,45.29,69.16,56.43,70.7,7.64,2.15-68.35,92.13-133.91,222.34-63.94C579.12,443,530.75,435.33,476.4,446.25Z" transform="translate(0 0)"/><path class="f3fe010e-4516-46b2-9973-3543648a1fcf" d="M678.2,605.29c-69.35,7.8-134.15-23.95-172-77.19,5-16.48,23.88-31.15,61.93-35.7C494,475.53,459.56,538.8,459,580.11c52.83,65.74,137.12,104,226.95,93.87A253.12,253.12,0,0,0,832,606.16c-22.73-7.47-46-18.92-69.54-32.36A184,184,0,0,1,678.2,605.29Z" transform="translate(0 0)"/><path class="b5109a49-1c87-4812-9d0f-e523c6f66ad9" d="M974.66,473.5C906.72,657.43,722.93,367.56,575.22,341.4c-121.83-21.58-244.07,38.1-247.46,157-57.71-167.65,113.54-281.93,273.06-241C766.54,299.85,875.34,577.53,974.66,473.5Z" transform="translate(0 0)"/><path class="bd6d7cc0-225f-4454-9b83-599a5493fc64" d="M625.67,238.56c3.66-.64,7.35-1.2,11.09-1.62,101.56-11.43,193.47,61.9,204.9,163.46.52,4.61.8,9.2,1,13.76,23.21,23.07,45.74,43,65.23,52.16a253.62,253.62,0,0,0,2.48-73.65C894.66,253.24,768.46,152.56,629,168.25a253.23,253.23,0,0,0-90.94,28.15c-46.2,4.59-92.61,23.26-108.26,47.45C472.91,227.15,551.62,215.41,625.67,238.56Z" transform="translate(0 0)"/><g class="b2edf158-163f-4746-b9c3-c195de699c3a"><g class="f6357d0d-81d6-4777-a1ba-877aca5278b3"><path class="b1d9e159-5aee-4ded-8138-b44bc4cf18c2" d="M597.24,267.77a255.91,255.91,0,0,0-63.43-8c-73.53,0-142,32-178.82,83.56-21.23,29.76-30.81,63.77-28.54,100.2,10.64-28.52,29.28-53.23,55.31-73,33.15-25.12,76.53-40.31,123.75-43.61a315.72,315.72,0,0,1,93-58.84Z" transform="translate(0 0)"/></g><g class="abcba510-f144-4956-aae8-2e0b92653d9c"><path class="f45ec815-74e7-48b7-9216-b2de684949df" d="M375.27,432.48a115.85,115.85,0,0,0-22.44,68.08c15.06-30.36,42-54.22,76.78-68.77a316.72,316.72,0,0,1,32.63-56.38C425.51,385.9,394.8,405.62,375.27,432.48Z" transform="translate(0 0)"/></g></g><path class="e83a149d-20da-4eb0-bfd3-4f5b13a2e0a7" d="M131,729.63c21.43-2.06,35.88-2.32,67.89-2.32,49.05,0,64.8,12.65,64.8,58.08,0,46-15.75,58.34-59.63,58.34a275.68,275.68,0,0,1-33.56-2.06v66.08H131Zm66.86,83.9c20.39-.26,26.33-5.94,26.33-28.14s-5.94-27.88-26.33-27.88l-27.36.26v55.76Z" transform="translate(0 0)"/><path class="e83a149d-20da-4eb0-bfd3-4f5b13a2e0a7" d="M371.35,861.8c-9.3,28.66-19.88,46.21-44.92,48.54-11.88,1-32-1.55-42.85-3.88L288,878.58c31.76,1.55,36.92,1.81,43.63-15.74l2.07-5.68h-9.55c-13.17,0-19.37-6.46-23-17.82L264.47,729.63h40.27l28.14,94.23a4.62,4.62,0,0,0,4.65,3.09H344l30.72-97.32H415Z" transform="translate(0 0)"/><path class="e83a149d-20da-4eb0-bfd3-4f5b13a2e0a7" d="M550.51,903.62c-16.52,5.17-31.49,7.23-57.05,7.23-55,0-74.86-24.26-74.86-92.16s19.87-92.16,74.86-92.16c25,0,37.17,1.81,53.44,5.94l-3.36,29.43c-16.78-1-27.62-1.29-50.08-1.29-25.82,0-33.56,13.16-33.56,58.08s7.74,58.09,33.56,58.09c23.75,0,37.95-.26,53.69-2.33Z" transform="translate(0 0)"/><path class="e83a149d-20da-4eb0-bfd3-4f5b13a2e0a7" d="M692.76,903.62c-16.52,5.17-31.49,7.23-57,7.23-55,0-74.86-24.26-74.86-92.16s19.87-92.16,74.86-92.16c25,0,37.17,1.81,53.44,5.94l-3.36,29.43c-16.78-1-27.62-1.29-50.08-1.29-25.82,0-33.56,13.16-33.56,58.08s7.74,58.09,33.56,58.09c23.75,0,37.95-.26,53.69-2.33Z" transform="translate(0 0)"/><path class="e83a149d-20da-4eb0-bfd3-4f5b13a2e0a7" d="M789.58,815.34c35.36,4.64,39.75,25.55,61.18,92.41h-41c-18.59-60.4-22.72-78.47-50.34-78.47H746.72a82.69,82.69,0,0,1,2.07,17v61.44H709.55V729.63h39.24V780a117.71,117.71,0,0,1-2.07,21.17h12.14c26.84,0,32.78-21.95,47.24-71.51h40c-18.59,57.83-22.72,80.28-56.53,84.67Z" transform="translate(0 0)"/><path class="e83a149d-20da-4eb0-bfd3-4f5b13a2e0a7" d="M906.07,861l-12.91,46.72H852.89L904.26,740c1.55-6.46,7.23-10.33,13.69-10.33h37.17c6.71,0,12.13,3.87,13.68,10.33l51.37,167.79h-40L967.25,861Zm37.69-84.93c-1.29-5.42-2.84-11.36-3.61-16.78h-7c-1.29,5.42-2.58,11.36-3.88,16.78l-15,54.47h44.4Z" transform="translate(0 0)"/><path class="e83a149d-20da-4eb0-bfd3-4f5b13a2e0a7" d="M1120.76,907.75V839.34h-26.07c-10.07,0-15.75,3.88-18.33,15.24l-13.17,53.17h-41.3l14.46-54.46c4.39-18.59,17.29-24.53,26.84-26.34l-.25-1.55c-25.56-3.09-34.08-19.36-34.08-45.43,0-39,18.85-52.66,64-52.66,31.5,0,45.95.26,67.12,2.32V907.75Zm0-150-26.85-.26c-19.61,0-25.29,5.16-25.55,25,0,19.36,5.94,26.59,25.55,26.59h26.85Z" transform="translate(0 0)"/><path class="e3c172a8-e547-461d-9d1f-de135eda9242" d="M372.67,1030c25.67,2.18,34.39,17.92,34.39,44.56,0,34.39-16.71,43.59-56.43,43.59-32.2,0-49.4-.24-70.71-1.94V949.12c19.14-1.69,34.87-1.93,63-1.93,43.58,0,58.84,9.2,58.84,43.59,0,24-8.23,36.32-29.06,38.26Zm-29.54-12.59c17.68,0,23.24-4.36,23.24-21.55,0-17-5.81-20.83-25.42-20.83L316,974.79v42.62Zm1,72.89c20.34,0,26.15-4.11,26.15-22.76,0-20.34-6.3-25.43-26.88-25.67H316v48.43Z" transform="translate(0 0)"/><path class="e3c172a8-e547-461d-9d1f-de135eda9242" d="M563.5,1032.67c0,67.07-18.89,86.69-71.68,86.69s-71.44-19.62-71.44-86.69S439,946,491.82,946,563.5,965.59,563.5,1032.67Zm-104.37,0c0,44.31,7.5,56.91,32.69,56.91s32.69-12.6,32.69-56.91-7.51-56.91-32.69-56.91S459.13,988.35,459.13,1032.67Z" transform="translate(0 0)"/><path class="e3c172a8-e547-461d-9d1f-de135eda9242" d="M713.16,1116.21h-37V975.76H654.8c-9.69,0-14.53,4.6-15.26,14-3.63,42.86-6.29,70.22-14.29,90.81-10.41,29.05-29.3,39.47-55.45,36.32l-2.66-28.57c11.38-2.18,19.61-6.06,24-17.68,6.54-17.44,9.45-39,13.08-85.24,1.69-24,15-36.33,39.23-36.33h69.74Z" transform="translate(0 0)"/><path class="e3c172a8-e547-461d-9d1f-de135eda9242" d="M872,1116.21H835v-74.58H776.13v74.58H739.32V949.12h36.81v63.93H835V949.12h37Z" transform="translate(0 0)"/><path class="e3c172a8-e547-461d-9d1f-de135eda9242" d="M931.11,1072.38,919,1116.21H881.23l48.19-157.4c1.45-6,6.78-9.69,12.83-9.69h34.87c6.3,0,11.38,3.64,12.84,9.69l48.18,157.4h-37.53l-12.11-43.83Zm35.36-79.67c-1.21-5.08-2.67-10.65-3.39-15.74h-6.54c-1.21,5.09-2.42,10.66-3.63,15.74l-14,51.1h41.65Z" transform="translate(0 0)"/></svg>