<?xml version="1.0" encoding="iso-8859-1"?>
<!-- Generator: Adobe Illustrator 19.0.0, SVG Export Plug-In . SVG Version: 6.00 Build 0)  -->
<svg version="1.1" id="Layer_1" xmlns="http://www.w3.org/2000/svg" xmlns:xlink="http://www.w3.org/1999/xlink" x="0px" y="0px"
	 viewBox="0 0 512 512" style="enable-background:new 0 0 512 512;" xml:space="preserve">
<g>
	<g>
		<path d="M481.662,131.125c-2.358-4.083-7.571-5.483-11.658-3.125l-31.646,18.27c-2.366-8.991,3.032-24.644,6.433-31.566
			c2.075-4.225,0.338-9.337-3.883-11.421c-4.233-2.079-9.338-0.35-11.421,3.867c-1.53,3.091-14.087,29.549-6.145,47.789
			l-54.428,31.423c-7.557-21.976,6.225-58.486,12.71-71.649c2.083-4.225,0.35-9.342-3.875-11.429
			c-4.204-2.079-9.333-0.354-11.425,3.867c-1.139,2.305-26.438,54.263-12.352,87.837l-25.452,14.695
			c-3.395-6.627-5.133-14.029-4.391-20.857l1.762-16.179c1.85-17.046-5.275-23.863-9.688-26.408c-4.4-2.546-13.879-5.3-27.717,4.817
			l-12.63,9.608c-3.967,2.905-9.234,4.849-13.501,5.867v-22.338c34.133-6.774,64.954-52.047,66.339-54.125
			c2.612-3.921,1.306-9.221-2.615-11.833c-3.929-2.629-8.853-1.554-11.462,2.367c-7.772,11.659-30.929,39.751-52.262,46.096V58.333
			c17.067-5.475,30.478-25.408,32.205-28c2.612-3.921,1.306-9.221-2.615-11.833c-3.929-2.621-8.845-1.558-11.461,2.367
			c-3.406,5.109-11.729,14.103-18.129,18.778V8.533c0-4.712-3.821-8.533-8.533-8.533s-8.533,3.821-8.533,8.533v31.091
			c-8.533-4.681-15.579-13.66-18.999-18.766c-2.625-3.921-8.173-4.971-12.081-2.346c-3.917,2.617-4.603,7.904-1.991,11.821
			c1.726,2.592,13.871,22.525,33.071,28v68.357c-23.467-6.357-45.338-34.44-53.132-46.095c-2.621-3.921-8.173-4.979-12.081-2.358
			c-3.917,2.617-4.603,7.908-1.991,11.829c1.383,2.078,30.938,47.351,67.204,54.125v22.338c-6.4-1.018-10.524-2.961-14.491-5.867
			l-13.373-9.608c-13.838-10.121-23.432-7.371-27.841-4.817c-4.411,2.546-11.599,9.362-9.749,26.408l1.727,16.179
			c0.542,4.96-0.254,10.223-2.012,15.275l-17.28-9.972c13.303-33.594-11.59-84.693-12.718-86.978
			c-2.089-4.225-7.214-5.967-11.427-3.867c-4.225,2.087-5.959,7.204-3.876,11.429c6.397,12.985,19.9,48.694,13.009,70.753
			L122.204,171l-33.825-18.544c5.899-18.067-5.634-42.353-7.096-45.306c-2.087-4.225-7.2-5.962-11.433-3.867
			c-4.225,2.092-5.954,7.208-3.867,11.433c3.135,6.336,7.965,20.045,6.877,29.231l-29.256-16.039
			c-4.15-2.271-9.317-0.754-11.588,3.379c-2.267,4.133-0.75,9.321,3.379,11.587l25.183,13.806c-7.394,2.964-16.46,4.51-21.638,4.856
			c-4.7,0.317-8.258,4.379-7.95,9.075c0.296,4.512,4.042,7.975,8.5,7.975c0.183,0,0.371-0.004,0.558-0.017
			c2.924-0.189,24.458-1.912,38.118-12.248l35.666,19.552l23.82,13.753c-17.103,14.669-51.037,20.14-64.574,21.03
			c-4.7,0.313-8.267,4.371-7.958,9.071c0.296,4.512,4.046,7.979,8.504,7.979c0.183,0,0.371-0.004,0.558-0.017
			c2.439-0.158,54.807-3.839,78.849-29.184l17.898,10.333c-3.432,3.883-7.495,7.048-11.926,9.001l-14.883,6.567
			c-15.692,6.917-18.033,16.5-18.033,21.591c0,5.096,2.342,14.675,18.029,21.592l14.892,6.567c1.912,0.844,3.748,1.93,5.504,3.184
			l-16.357,10.394c-25.581-21.257-71.687-24.504-73.972-24.653c-4.775-0.292-8.758,3.267-9.062,7.962
			c-0.304,4.7,3.258,8.762,7.958,9.071c12.35,0.809,41.692,5.427,59.728,17.373l-60.237,38.276
			c-13.289-7.18-29.972-8.518-32.52-8.682c-4.721-0.279-8.762,3.267-9.067,7.967c-0.304,4.704,3.267,8.763,7.967,9.067
			c3.894,0.251,9.995,1.184,15.929,2.891l-21.725,13.805c-3.979,2.529-5.154,7.804-2.629,11.779
			c1.629,2.558,4.392,3.958,7.213,3.958c1.566,0,3.15-0.429,4.567-1.329l29.092-18.486c4.581,8.181-1.653,26.556-5.417,34.216
			c-2.075,4.225-0.337,9.337,3.884,11.421c1.217,0.596,2.504,0.883,3.771,0.883c3.142,0,6.163-1.746,7.65-4.75
			c1.604-3.242,15.358-32.2,4.846-50.413c-0.102-0.176-0.218-0.341-0.324-0.514l59.207-37.622
			c11.507,21.113-3.816,62.006-10.762,76.106c-2.083,4.225-0.35,9.342,3.875,11.429c1.213,0.6,2.504,0.883,3.771,0.883
			c3.142,0,6.167-1.742,7.654-4.75c1.196-2.421,29.079-59.638,9.95-92.771c-0.015-0.025-0.032-0.049-0.047-0.074l16.579-10.535
			c4.132,7.128,6.323,15.385,5.501,22.934l-1.759,16.175c-1.85,17.046,5.275,23.863,9.688,26.408
			c4.417,2.554,13.887,5.308,27.716-4.817l13.62-9.608c3.967-2.905,8.091-4.849,14.491-5.867v30.871
			c-36.267,6.774-65.945,52.047-67.328,54.125c-2.612,3.921-1.802,9.221,2.119,11.833c1.454,0.971,2.977,1.433,4.602,1.433
			c2.758,0,5.895-1.333,7.541-3.8c7.772-11.659,29.6-39.751,53.067-46.096v59.829c-19.2,5.475-31.468,25.408-33.195,28
			c-2.612,3.921-1.802,9.221,2.119,11.833c1.454,0.971,2.977,1.433,4.602,1.433c2.758,0,5.895-1.333,7.541-3.8
			c3.406-5.109,10.4-14.103,18.933-18.778v31.111c0,4.713,3.821,8.533,8.533,8.533s8.533-3.821,8.533-8.533v-31.091
			c6.4,4.681,14.59,13.66,18.009,18.766c2.625,3.904,7.665,4.963,11.586,2.346c3.917-2.617,5.347-7.904,2.734-11.821
			c-1.727-2.592-15.263-22.525-32.329-28v-59.823c21.333,6.356,44.348,34.439,52.143,46.094c2.617,3.917,7.665,4.967,11.585,2.358
			c3.917-2.617,5.347-7.908,2.734-11.829c-1.384-2.078-32.329-47.351-66.463-54.125v-30.871c4.267,1.018,9.534,2.962,13.501,5.867
			l12.877,9.608c7.508,5.492,13.605,7.196,18.431,7.196c4.066,0,7.083-1.213,9.1-2.379c4.413-2.546,11.506-9.363,9.656-26.412
			l-1.777-16.171c-0.644-5.91,0.571-12.25,3.106-18.147l28.14,16.248c-17.079,33.37,9.762,88.502,10.936,90.878
			c1.488,3.008,4.512,4.75,7.657,4.75c1.267,0,2.557-0.283,3.774-0.883c4.225-2.088,5.954-7.208,3.867-11.433
			c-6.82-13.79-21.689-53.265-11.455-74.776l53.241,30.739c-8.082,18.248,4.543,44.851,6.077,47.95
			c1.487,3.008,4.508,4.75,7.65,4.75c1.267,0,2.554-0.287,3.771-0.883c4.221-2.083,5.958-7.196,3.883-11.421
			c-3.423-6.966-8.867-22.773-6.385-31.738l25.123,14.504c1.346,0.775,2.813,1.142,4.258,1.142c2.95,0,5.817-1.529,7.4-4.267
			c2.354-4.083,0.958-9.3-3.125-11.658l-19.051-10.999c6.767-2.288,14.283-3.515,18.818-3.818c4.7-0.317,8.258-4.379,7.95-9.075
			c-0.308-4.7-4.308-8.3-9.058-7.958c-2.752,0.178-21.975,1.721-35.618,10.511l-53.237-30.736
			c17.906-12.561,48.298-17.38,60.93-18.208c4.7-0.308,8.262-4.371,7.958-9.071c-0.304-4.696-4.296-8.221-9.062-7.962
			c-2.336,0.152-50.468,3.544-75.65,26.105l-29.148-16.829c2.934-2.847,6.233-5.177,9.769-6.734l14.883-6.567
			c15.687-6.917,18.033-16.496,18.033-21.592c0-5.096-2.342-14.675-18.029-21.591l-14.892-6.567
			c-2.621-1.155-5.114-2.735-7.425-4.634l24.294-14.026c24.328,24.724,75.747,28.353,78.165,28.51
			c0.188,0.013,0.375,0.017,0.558,0.017c4.458,0,8.208-3.467,8.504-7.979c0.308-4.7-3.258-8.758-7.958-9.071
			c-13.341-0.878-46.503-6.196-63.832-20.388l55.977-32.317c13.651,8.884,33.018,10.439,35.78,10.618
			c0.188,0.013,0.375,0.017,0.558,0.017c4.463,0,8.217-3.467,8.508-7.983c0.304-4.704-3.267-8.762-7.967-9.067
			c-4.585-0.296-12.225-1.534-19.053-3.877l25.77-14.877C482.62,140.425,484.016,135.209,481.662,131.125z M339.771,243.458
			l14.892,6.567c6.483,2.858,7.85,5.562,7.85,5.975c0,0.413-1.367,3.117-7.854,5.975l-14.883,6.567
			c-20.738,9.142-35.062,33.954-32.612,56.483l1.763,16.171c0.767,7.046-0.892,9.579-1.25,9.788c-0.35,0.2-3.379,0.383-9.104-3.812
			l-13.125-9.608c-9.146-6.692-20.879-10.038-32.612-10.038s-23.471,3.346-32.612,10.038l-13.125,9.608
			c-5.729,4.196-8.75,4-9.1,3.812c-0.358-0.208-2.021-2.742-1.254-9.788l1.758-16.171c2.45-22.529-11.871-47.337-32.604-56.483
			l-14.892-6.567c-6.487-2.858-7.85-5.558-7.85-5.975c0-0.412,1.363-3.117,7.854-5.975l14.883-6.567
			c20.742-9.146,35.063-33.954,32.608-56.479l-1.758-16.175c-0.767-7.046,0.892-9.579,1.25-9.787
			c0.358-0.196,3.388-0.379,9.104,3.812l13.125,9.608c18.292,13.383,46.942,13.383,65.225,0l13.125-9.608
			c5.725-4.196,8.742-4.017,9.1-3.812c0.358,0.208,2.021,2.742,1.254,9.783l-1.763,16.179
			C304.716,209.513,319.041,234.321,339.771,243.458z"/>
	</g>
</g>
<g>
	<g>
		<path d="M307.475,248.192l-23.312-10.279l2.754-25.333c0.367-3.358-1.287-6.621-4.217-8.313c-2.925-1.692-6.579-1.504-9.308,0.508
			l-20.559,15.05l-20.558-15.05c-2.729-2.004-6.383-2.192-9.308-0.508c-2.929,1.692-4.583,4.954-4.217,8.313l2.754,25.333
			l-23.312,10.279c-3.096,1.363-5.092,4.425-5.092,7.808c0,3.383,1.996,6.446,5.092,7.808l23.312,10.279l-2.754,25.333
			c-0.367,3.358,1.287,6.621,4.217,8.312c2.917,1.679,6.571,1.492,9.308-0.508l20.558-15.05l20.559,15.05
			c1.496,1.096,3.267,1.65,5.042,1.65c1.471,0,2.942-0.379,4.267-1.142c2.929-1.691,4.583-4.954,4.217-8.312l-2.754-25.333
			l23.312-10.279c3.096-1.363,5.092-4.425,5.092-7.808C312.566,252.617,310.57,249.554,307.475,248.192z M271.562,260.992
			c-3.404,1.5-5.442,5.033-5.042,8.729l1.338,12.304l-9.983-7.308c-1.5-1.1-3.271-1.65-5.042-1.65c-1.771,0-3.542,0.55-5.042,1.65
			l-9.983,7.308l1.337-12.304c0.4-3.696-1.638-7.229-5.042-8.729L222.783,256l11.321-4.992c3.404-1.5,5.442-5.033,5.042-8.729
			l-1.337-12.304l9.983,7.308c3,2.2,7.083,2.2,10.083,0l9.983-7.308l-1.338,12.304c-0.4,3.696,1.638,7.229,5.042,8.729L282.883,256
			L271.562,260.992z"/>
	</g>
</g>
<g>
</g>
<g>
</g>
<g>
</g>
<g>
</g>
<g>
</g>
<g>
</g>
<g>
</g>
<g>
</g>
<g>
</g>
<g>
</g>
<g>
</g>
<g>
</g>
<g>
</g>
<g>
</g>
<g>
</g>
</svg>
