<?xml version="1.0" encoding="iso-8859-1"?>
<!-- Generator: Adobe Illustrator 19.0.0, SVG Export Plug-In . SVG Version: 6.00 Build 0)  -->
<svg version="1.1" id="Layer_1" xmlns="http://www.w3.org/2000/svg" xmlns:xlink="http://www.w3.org/1999/xlink" x="0px" y="0px"
	 viewBox="0 0 512 512" style="enable-background:new 0 0 512 512;" xml:space="preserve">
<g>
	<g>
		<path style="fill:#E4E5E6;" d="M459.034,264.828H300.138c-4.873,0-8.828-3.946-8.828-8.828s3.955-8.828,8.828-8.828h158.897
			c4.873,0,8.828,3.946,8.828,8.828S463.907,264.828,459.034,264.828"/>
		<path style="fill:#E4E5E6;" d="M432.556,308.966c-2.586,0-5.155-1.13-6.894-3.31l-35.31-44.138
			c-3.046-3.814-2.436-9.366,1.377-12.412c3.805-3.046,9.357-2.436,12.403,1.377l35.31,44.138c3.046,3.814,2.436,9.366-1.377,12.412
			C436.44,308.339,434.489,308.966,432.556,308.966"/>
		<path style="fill:#E4E5E6;" d="M397.237,264.828c-1.933,0-3.884-0.627-5.508-1.933c-3.814-3.046-4.423-8.598-1.377-12.412
			l35.31-44.138c3.037-3.805,8.607-4.423,12.403-1.377c3.814,3.046,4.423,8.598,1.377,12.412l-35.31,44.138
			C402.392,263.689,399.823,264.828,397.237,264.828"/>
		<path style="fill:#E4E5E6;" d="M379.591,308.966c-2.586,0-5.155-1.13-6.894-3.31l-35.31-44.138
			c-3.046-3.814-2.436-9.366,1.377-12.412c3.796-3.046,9.366-2.436,12.403,1.377l35.31,44.138c3.046,3.814,2.436,9.366-1.377,12.412
			C383.475,308.339,381.524,308.966,379.591,308.966"/>
		<path style="fill:#E4E5E6;" d="M344.271,264.828c-1.933,0-3.884-0.627-5.508-1.933c-3.814-3.046-4.423-8.598-1.377-12.412
			l35.31-44.138c3.037-3.805,8.598-4.423,12.403-1.377c3.814,3.046,4.423,8.598,1.377,12.412l-35.31,44.138
			C349.427,263.689,346.858,264.828,344.271,264.828"/>
	</g>
	<path id="SVGCleanerId_0" style="fill:#E4E5E6;" d="M114.763,264.828c-2.586,0-5.155-1.13-6.894-3.31l-35.31-44.138
		c-3.046-3.814-2.436-9.366,1.377-12.412c3.796-3.054,9.366-2.436,12.403,1.377l35.31,44.138c3.046,3.814,2.436,9.366-1.377,12.412
		C118.647,264.201,116.696,264.828,114.763,264.828"/>
	<path id="SVGCleanerId_1" style="fill:#E4E5E6;" d="M79.444,308.966c-1.933,0-3.884-0.627-5.508-1.933
		c-3.814-3.046-4.423-8.598-1.377-12.412l35.31-44.138c3.037-3.805,8.598-4.423,12.403-1.377c3.814,3.046,4.423,8.598,1.377,12.412
		l-35.31,44.138C84.599,307.827,82.03,308.966,79.444,308.966"/>
	<g>
		<path style="fill:#E4E5E6;" d="M414.897,150.069h-44.138c-4.873,0-8.828-3.946-8.828-8.828s3.955-8.828,8.828-8.828h44.138
			c4.873,0,8.828,3.946,8.828,8.828S419.769,150.069,414.897,150.069"/>
		<path style="fill:#E4E5E6;" d="M370.759,150.069c-4.873,0-8.828-3.946-8.828-8.828V97.103c0-4.882,3.955-8.828,8.828-8.828
			c4.873,0,8.828,3.946,8.828,8.828v44.138C379.586,146.123,375.631,150.069,370.759,150.069"/>
		<path style="fill:#E4E5E6;" d="M379.586,185.379h-44.138c-4.873,0-8.828-3.946-8.828-8.828s3.955-8.828,8.828-8.828h44.138
			c4.873,0,8.828,3.946,8.828,8.828S384.459,185.379,379.586,185.379"/>
		<path style="fill:#E4E5E6;" d="M335.448,185.379c-4.873,0-8.828-3.946-8.828-8.828v-44.138c0-4.882,3.955-8.828,8.828-8.828
			s8.828,3.946,8.828,8.828v44.138C344.276,181.433,340.321,185.379,335.448,185.379"/>
		<path style="fill:#E4E5E6;" d="M211.862,264.828H52.966c-4.873,0-8.828-3.946-8.828-8.828s3.955-8.828,8.828-8.828h158.897
			c4.873,0,8.828,3.946,8.828,8.828S216.735,264.828,211.862,264.828"/>
	</g>
	<g>
		<path id="SVGCleanerId_0_1_" style="fill:#E4E5E6;" d="M114.763,264.828c-2.586,0-5.155-1.13-6.894-3.31l-35.31-44.138
			c-3.046-3.814-2.436-9.366,1.377-12.412c3.796-3.054,9.366-2.436,12.403,1.377l35.31,44.138c3.046,3.814,2.436,9.366-1.377,12.412
			C118.647,264.201,116.696,264.828,114.763,264.828"/>
	</g>
	<g>
		<path id="SVGCleanerId_1_1_" style="fill:#E4E5E6;" d="M79.444,308.966c-1.933,0-3.884-0.627-5.508-1.933
			c-3.814-3.046-4.423-8.598-1.377-12.412l35.31-44.138c3.037-3.805,8.598-4.423,12.403-1.377c3.814,3.046,4.423,8.598,1.377,12.412
			l-35.31,44.138C84.599,307.827,82.03,308.966,79.444,308.966"/>
	</g>
	<g>
		<path style="fill:#E4E5E6;" d="M167.729,264.828c-2.586,0-5.155-1.13-6.894-3.31l-35.31-44.138
			c-3.046-3.814-2.436-9.366,1.377-12.412c3.805-3.054,9.366-2.436,12.403,1.377l35.31,44.138c3.046,3.814,2.436,9.366-1.377,12.412
			C171.613,264.201,169.662,264.828,167.729,264.828"/>
		<path style="fill:#E4E5E6;" d="M132.409,308.966c-1.933,0-3.884-0.627-5.508-1.933c-3.814-3.046-4.423-8.598-1.377-12.412
			l35.31-44.138c3.037-3.805,8.607-4.423,12.403-1.377c3.814,3.046,4.423,8.598,1.377,12.412l-35.31,44.138
			C137.565,307.827,134.996,308.966,132.409,308.966"/>
		<path style="fill:#E4E5E6;" d="M256,467.862c-4.873,0-8.828-3.946-8.828-8.828V300.138c0-4.882,3.955-8.828,8.828-8.828
			s8.828,3.946,8.828,8.828v158.897C264.828,463.916,260.873,467.862,256,467.862"/>
		<path style="fill:#E4E5E6;" d="M211.866,441.379c-2.586,0-5.155-1.13-6.894-3.31c-3.046-3.814-2.436-9.366,1.377-12.412
			l44.138-35.31c3.796-3.054,9.366-2.436,12.403,1.377c3.046,3.814,2.436,9.366-1.377,12.412l-44.138,35.31
			C215.751,440.753,213.8,441.379,211.866,441.379"/>
		<path style="fill:#E4E5E6;" d="M300.134,441.379c-1.933,0-3.884-0.627-5.508-1.933l-44.138-35.31
			c-3.814-3.046-4.423-8.598-1.377-12.412c3.037-3.805,8.607-4.423,12.403-1.377l44.138,35.31c3.814,3.046,4.423,8.598,1.377,12.412
			C305.289,440.241,302.72,441.379,300.134,441.379"/>
		<path style="fill:#E4E5E6;" d="M211.866,388.414c-2.586,0-5.155-1.13-6.894-3.31c-3.046-3.814-2.436-9.366,1.377-12.412
			l44.138-35.31c3.796-3.046,9.366-2.436,12.403,1.377c3.046,3.814,2.436,9.366-1.377,12.412l-44.138,35.31
			C215.751,387.787,213.8,388.414,211.866,388.414"/>
		<path style="fill:#E4E5E6;" d="M300.134,388.414c-1.933,0-3.884-0.627-5.508-1.933l-44.138-35.31
			c-3.814-3.046-4.423-8.598-1.377-12.412c3.037-3.805,8.607-4.423,12.403-1.377l44.138,35.31c3.814,3.046,4.423,8.598,1.377,12.412
			C305.289,387.275,302.72,388.414,300.134,388.414"/>
	</g>
	<path id="SVGCleanerId_2" style="fill:#E4E5E6;" d="M256.004,123.586c-2.586,0-5.155-1.13-6.894-3.31
		c-3.046-3.814-2.436-9.366,1.377-12.412l44.138-35.31c3.796-3.046,9.366-2.436,12.403,1.377c3.046,3.814,2.436,9.366-1.377,12.412
		l-44.138,35.31C259.889,122.959,257.938,123.586,256.004,123.586"/>
	<path id="SVGCleanerId_3" style="fill:#E4E5E6;" d="M255.996,123.586c-1.933,0-3.884-0.627-5.508-1.933l-44.138-35.31
		c-3.814-3.046-4.423-8.598-1.377-12.412c3.037-3.805,8.607-4.423,12.403-1.377l44.138,35.31c3.814,3.046,4.423,8.598,1.377,12.412
		C261.151,122.447,258.582,123.586,255.996,123.586"/>
	<path style="fill:#E4E5E6;" d="M256,220.69c-4.873,0-8.828-3.946-8.828-8.828V52.966c0-4.882,3.955-8.828,8.828-8.828
		s8.828,3.946,8.828,8.828v158.897C264.828,216.744,260.873,220.69,256,220.69"/>
	<g>
		<path id="SVGCleanerId_2_1_" style="fill:#E4E5E6;" d="M256.004,123.586c-2.586,0-5.155-1.13-6.894-3.31
			c-3.046-3.814-2.436-9.366,1.377-12.412l44.138-35.31c3.796-3.046,9.366-2.436,12.403,1.377c3.046,3.814,2.436,9.366-1.377,12.412
			l-44.138,35.31C259.889,122.959,257.938,123.586,256.004,123.586"/>
	</g>
	<g>
		<path id="SVGCleanerId_3_1_" style="fill:#E4E5E6;" d="M255.996,123.586c-1.933,0-3.884-0.627-5.508-1.933l-44.138-35.31
			c-3.814-3.046-4.423-8.598-1.377-12.412c3.037-3.805,8.607-4.423,12.403-1.377l44.138,35.31c3.814,3.046,4.423,8.598,1.377,12.412
			C261.151,122.447,258.582,123.586,255.996,123.586"/>
	</g>
	<g>
		<path style="fill:#E4E5E6;" d="M256.004,176.552c-2.586,0-5.155-1.13-6.894-3.31c-3.046-3.814-2.436-9.366,1.377-12.412
			l44.138-35.31c3.796-3.046,9.366-2.445,12.403,1.377c3.046,3.814,2.436,9.366-1.377,12.412l-44.138,35.31
			C259.889,175.925,257.938,176.552,256.004,176.552"/>
		<path style="fill:#E4E5E6;" d="M255.996,176.552c-1.933,0-3.884-0.627-5.508-1.933l-44.138-35.31
			c-3.814-3.046-4.423-8.598-1.377-12.412c3.037-3.805,8.607-4.423,12.403-1.377l44.138,35.31c3.814,3.046,4.423,8.598,1.377,12.412
			C261.151,175.413,258.582,176.552,255.996,176.552"/>
		<path style="fill:#E4E5E6;" d="M287.211,233.62c-2.26,0-4.52-0.865-6.241-2.586c-3.452-3.452-3.452-9.031,0-12.482L407.584,91.929
			c3.452-3.443,9.039-3.443,12.482,0c3.452,3.452,3.452,9.039,0,12.482L293.452,231.034
			C291.731,232.755,289.471,233.62,287.211,233.62"/>
		<path style="fill:#E4E5E6;" d="M141.241,379.586H97.103c-4.873,0-8.828-3.946-8.828-8.828c0-4.882,3.955-8.828,8.828-8.828h44.138
			c4.873,0,8.828,3.946,8.828,8.828C150.069,375.64,146.114,379.586,141.241,379.586"/>
		<path style="fill:#E4E5E6;" d="M141.241,423.724c-4.873,0-8.828-3.946-8.828-8.828v-44.138c0-4.882,3.955-8.828,8.828-8.828
			s8.828,3.946,8.828,8.828v44.138C150.069,419.778,146.114,423.724,141.241,423.724"/>
		<path style="fill:#E4E5E6;" d="M176.552,344.276h-44.138c-4.873,0-8.828-3.946-8.828-8.828c0-4.882,3.955-8.828,8.828-8.828
			h44.138c4.873,0,8.828,3.946,8.828,8.828C185.379,340.33,181.425,344.276,176.552,344.276"/>
		<path style="fill:#E4E5E6;" d="M176.552,388.414c-4.873,0-8.828-3.946-8.828-8.828v-44.138c0-4.882,3.955-8.828,8.828-8.828
			c4.873,0,8.828,3.946,8.828,8.828v44.138C185.379,384.468,181.425,388.414,176.552,388.414"/>
		<path style="fill:#E4E5E6;" d="M98.172,422.655c-2.26,0-4.52-0.865-6.241-2.586c-3.452-3.452-3.452-9.031,0-12.482
			l126.614-126.623c3.452-3.443,9.039-3.443,12.482,0c3.452,3.452,3.452,9.039,0,12.482L104.414,420.069
			C102.692,421.79,100.432,422.655,98.172,422.655"/>
		<path style="fill:#E4E5E6;" d="M141.241,150.069c-4.873,0-8.828-3.946-8.828-8.828V97.103c0-4.882,3.955-8.828,8.828-8.828
			s8.828,3.946,8.828,8.828v44.138C150.069,146.123,146.114,150.069,141.241,150.069"/>
		<path style="fill:#E4E5E6;" d="M141.241,150.069H97.103c-4.873,0-8.828-3.946-8.828-8.828s3.955-8.828,8.828-8.828h44.138
			c4.873,0,8.828,3.946,8.828,8.828S146.114,150.069,141.241,150.069"/>
		<path style="fill:#E4E5E6;" d="M176.552,185.379c-4.873,0-8.828-3.946-8.828-8.828v-44.138c0-4.882,3.955-8.828,8.828-8.828
			c4.873,0,8.828,3.946,8.828,8.828v44.138C185.379,181.433,181.425,185.379,176.552,185.379"/>
		<path style="fill:#E4E5E6;" d="M176.552,185.379h-44.138c-4.873,0-8.828-3.946-8.828-8.828s3.955-8.828,8.828-8.828h44.138
			c4.873,0,8.828,3.946,8.828,8.828S181.425,185.379,176.552,185.379"/>
		<path style="fill:#E4E5E6;" d="M224.789,233.62c-2.26,0-4.52-0.865-6.241-2.586L91.934,104.411c-3.452-3.443-3.452-9.031,0-12.482
			c3.443-3.443,9.031-3.443,12.482,0L231.03,218.552c3.452,3.452,3.452,9.031,0,12.482
			C229.309,232.755,227.049,233.62,224.789,233.62"/>
		<path style="fill:#E4E5E6;" d="M370.759,423.724c-4.873,0-8.828-3.946-8.828-8.828v-44.138c0-4.882,3.955-8.828,8.828-8.828
			c4.873,0,8.828,3.946,8.828,8.828v44.138C379.586,419.778,375.631,423.724,370.759,423.724"/>
		<path style="fill:#E4E5E6;" d="M414.897,379.586h-44.138c-4.873,0-8.828-3.946-8.828-8.828c0-4.882,3.955-8.828,8.828-8.828
			h44.138c4.873,0,8.828,3.946,8.828,8.828C423.724,375.64,419.769,379.586,414.897,379.586"/>
		<path style="fill:#E4E5E6;" d="M335.448,388.414c-4.873,0-8.828-3.946-8.828-8.828v-44.138c0-4.882,3.955-8.828,8.828-8.828
			s8.828,3.946,8.828,8.828v44.138C344.276,384.468,340.321,388.414,335.448,388.414"/>
		<path style="fill:#E4E5E6;" d="M379.586,344.276h-44.138c-4.873,0-8.828-3.946-8.828-8.828c0-4.882,3.955-8.828,8.828-8.828
			h44.138c4.873,0,8.828,3.946,8.828,8.828C388.414,340.33,384.459,344.276,379.586,344.276"/>
		<path style="fill:#E4E5E6;" d="M413.828,422.655c-2.295,0-4.59-0.892-6.321-2.666l-125.06-128.335
			c-3.399-3.487-3.328-9.084,0.168-12.482c3.487-3.407,9.075-3.337,12.482,0.159l125.052,128.335
			c3.407,3.487,3.328,9.084-0.159,12.482C418.268,421.816,416.043,422.655,413.828,422.655"/>
	</g>
	<g>
		<path style="fill:#CFD2CF;" d="M300.138,256c0,24.373-19.765,44.138-44.138,44.138S211.862,280.373,211.862,256
			s19.765-44.138,44.138-44.138S300.138,231.627,300.138,256"/>
		<path style="fill:#CFD2CF;" d="M512,256c0,14.627-11.855,26.483-26.483,26.483S459.034,270.627,459.034,256
			c0-14.627,11.855-26.483,26.483-26.483S512,241.373,512,256"/>
		<path style="fill:#CFD2CF;" d="M52.966,256c0,14.627-11.855,26.483-26.483,26.483S0,270.627,0,256
			c0-14.627,11.855-26.483,26.483-26.483S52.966,241.373,52.966,256"/>
		<path style="fill:#CFD2CF;" d="M256,512c-14.627,0-26.483-11.855-26.483-26.483s11.855-26.483,26.483-26.483
			c14.627,0,26.483,11.855,26.483,26.483S270.627,512,256,512"/>
		<path style="fill:#CFD2CF;" d="M256,52.966c-14.627,0-26.483-11.855-26.483-26.483S241.373,0,256,0
			c14.627,0,26.483,11.855,26.483,26.483S270.627,52.966,256,52.966"/>
		<path style="fill:#CFD2CF;" d="M413.826,98.174c-10.346-10.346-10.346-27.11,0-37.455c10.346-10.337,27.109-10.337,37.455,0
			c10.337,10.346,10.337,27.11,0,37.455C440.935,108.52,424.172,108.52,413.826,98.174"/>
		<path style="fill:#CFD2CF;" d="M98.174,413.826c10.346,10.346,10.346,27.109,0,37.455c-10.346,10.337-27.11,10.337-37.455,0
			c-10.337-10.346-10.337-27.11,0-37.455C71.065,403.48,87.828,403.48,98.174,413.826"/>
		<path style="fill:#CFD2CF;" d="M98.174,98.174c-10.346,10.346-27.11,10.346-37.455,0c-10.337-10.346-10.337-27.11,0-37.455
			c10.346-10.337,27.11-10.337,37.455,0C108.52,71.065,108.52,87.828,98.174,98.174"/>
		<path style="fill:#CFD2CF;" d="M413.826,413.826c10.346-10.346,27.109-10.346,37.455,0c10.337,10.346,10.337,27.109,0,37.455
			c-10.346,10.337-27.11,10.337-37.455,0C403.48,440.935,403.48,424.172,413.826,413.826"/>
	</g>
</g>
<g>
</g>
<g>
</g>
<g>
</g>
<g>
</g>
<g>
</g>
<g>
</g>
<g>
</g>
<g>
</g>
<g>
</g>
<g>
</g>
<g>
</g>
<g>
</g>
<g>
</g>
<g>
</g>
<g>
</g>
</svg>
