<svg xmlns="http://www.w3.org/2000/svg" xmlns:xlink="http://www.w3.org/1999/xlink" x="0px" y="0px" width="111.882px" height="122.474px" viewBox="44.002 38.844 111.882 122.474" enable-background="new 44.002 38.844 111.882 122.474" xml:space="preserve">
	<g>
		<g>
			<polygon fill="#001A4B" points="44.002,116.416 44.002,150.666 155.826,150.666 155.826,116.416 155.826,38.845 44.002,38.845"/>
		</g>
		<g>
			<g>
				<g>
					<g opacity="0.1">
						<g>
							<g>
								<defs>
									<rect id="SVGID_1_" x="44.002" y="38.845" width="111.822" height="111.821"/>
								</defs>
								<clipPath id="SVGID_2_">
									<use xlink:href="#SVGID_1_" overflow="visible"/>
								</clipPath>
								<polygon clip-path="url(#SVGID_2_)" fill="#002899" points="44.002,116.416 44.002,150.666 155.826,150.666 155.826,116.416 155.826,38.845 44.002,38.845"/>
							</g>
						</g>
					</g>
				</g>
			</g>
			<g>
				<polygon fill="#F40018" points="74.853,161.318 155.682,120.89 155.053,80.577 75.012,120.521"/>
			</g>
			<g>
				<g>
					<g>
						<path fill="#FFFFFF" d="M152.479,109.454l-0.026-2.639l-6.015,0.062l-0.027-2.654l6.015-0.062l-0.026-2.639l-6.014,0.062 l-0.026-2.658l6.014-0.061l-0.026-2.638l-6.014,0.061l-0.026-2.656l6.014-0.061l-0.025-2.639l-6.015,0.062l-0.005-0.487 c-0.058-5.671,4.135-10.393,9.609-11.142v41.71c-5.285-0.823-9.354-5.366-9.411-10.891l-0.008-0.669L152.479,109.454z"/>
						<path fill="#FFFFFF" d="M67.29,113.613h8.97v-7.626h14.343v-5.98H76.26v-5.341h16.692v-6.408H67.29V113.613z M121.259,88.258 L121.259,88.258l-6.856,14.59h-0.313l-6.856-14.59H96.157v25.355h8.33V99.88h0.496l6.299,13.733h5.919l6.31-13.733h0.494 v13.733h8.331V88.258H121.259z"/>
						<path fill="#FFFFFF" d="M134.788,66.579h7.038c0.328,0,0.546,0.217,0.552,0.538v15.161c0.002,0.332-0.222,0.548-0.544,0.548 h-7.039c-0.325,0-0.543-0.215-0.549-0.548l-0.001-15.161C134.248,66.796,134.466,66.579,134.788,66.579 M91,66.579L91,66.579 c-0.324,0-0.541,0.217-0.538,0.538v15.161c-0.001,0.332,0.213,0.548,0.542,0.548h7.037c0.325,0,0.542-0.215,0.541-0.548V67.117 c0.004-0.32-0.213-0.538-0.543-0.538H91z M132.258,74.259L132.258,74.259c-0.002-0.328-0.221-0.55-0.548-0.55h-7.034 c-0.334,0-0.54,0.222-0.54,0.542v6.544h-9.246c-0.027,0.001-0.233-0.013-0.312-0.016c-0.158-0.007-0.315-0.009-0.471-0.026 c-0.029-0.002-0.411-0.062-0.411-0.062c-2.837-0.522-4.988-2.998-4.988-5.985c0-3.029,2.213-5.524,5.106-6 c0.104-0.021,0.35-0.055,0.457-0.066c0,0,0.558-0.03,0.567-0.03h9.154c0.172,0.006,0.349-0.098,0.433-0.243l0.587-1.014 c0.175-0.295,0.04-0.773-0.466-0.773h-15.833c-4.489,0-8.118,3.637-8.11,8.122c0.004,4.487,3.642,8.124,8.132,8.124h0.031 h22.958c0.326,0,0.537-0.216,0.537-0.545L132.258,74.259z M88.631,74.702L88.631,74.702c0.003,4.488-3.636,8.125-8.117,8.125 H57.795c-0.324,0-0.546-0.219-0.548-0.545V67.123c0-0.328,0.218-0.543,0.554-0.543h22.655h0.041 C84.98,66.58,88.626,70.216,88.631,74.702 M80.53,74.708L80.53,74.708c0-3.141-2.378-5.694-5.427-6.033	c0,0-0.134-0.016-0.293-0.03c-0.172-0.018-0.462-0.036-0.495-0.036h-8.937v12.188h-0.003l0.003,0.007v-0.007h8.973 c0.322,0,0.751-0.061,0.751-0.061C78.152,80.397,80.53,77.844,80.53,74.708"/>
					</g>
				</g>
			</g>
		</g>
	</g>
</svg>
