<svg xmlns="http://www.w3.org/2000/svg" xmlns:xlink="http://www.w3.org/1999/xlink" id="Sloy_1" data-name="Sloy 1" viewBox="0 0 581.26 274.63" class="_svg replaced-svg"><defs><style>.x_sl7-cls-1{fill:#231f20;}.x_sl7-cls-2{fill:url(#Bezymyannyy_gradient_95);}.x_sl7-cls-3{fill:url(#Bezymyannyy_gradient_95-2);}.x_sl7-cls-4{fill:url(#Bezymyannyy_gradient_95-3);}.x_sl7-cls-5{fill:url(#Bezymyannyy_gradient_95-4);}.x_sl7-cls-6{fill:url(#Bezymyannyy_gradient_95-5);}.x_sl7-cls-7{fill:url(#Bezymyannyy_gradient_95-6);}.x_sl7-cls-8{fill:url(#Bezymyannyy_gradient_95-7);}.x_sl7-cls-9{fill:#f1bc0b;}</style><linearGradient id="Bezymyannyy_gradient_95" x1="-41.93" y1="197.25" x2="502.85" y2="11.74" gradientUnits="userSpaceOnUse"><stop offset="0" stop-color="#bc2d2f"></stop><stop offset="0.98" stop-color="#f5911e"></stop></linearGradient><linearGradient id="Bezymyannyy_gradient_95-2" x1="-37.28" y1="210.88" x2="507.49" y2="25.38" xlink:href="#Bezymyannyy_gradient_95"></linearGradient><linearGradient id="Bezymyannyy_gradient_95-3" x1="-33.27" y1="222.66" x2="511.5" y2="37.15" xlink:href="#Bezymyannyy_gradient_95"></linearGradient><linearGradient id="Bezymyannyy_gradient_95-4" x1="-36.22" y1="214.01" x2="508.56" y2="28.51" xlink:href="#Bezymyannyy_gradient_95"></linearGradient><linearGradient id="Bezymyannyy_gradient_95-5" x1="-35.37" y1="216.49" x2="509.4" y2="30.98" xlink:href="#Bezymyannyy_gradient_95"></linearGradient><linearGradient id="Bezymyannyy_gradient_95-6" x1="-34.81" y1="218.14" x2="509.96" y2="32.63" xlink:href="#Bezymyannyy_gradient_95"></linearGradient><linearGradient id="Bezymyannyy_gradient_95-7" x1="-34.37" y1="219.43" x2="510.4" y2="33.93" xlink:href="#Bezymyannyy_gradient_95"></linearGradient></defs><title>Horoshee radio</title><path class="x_sl7-cls-1" d="M535.88,95c-3-19.82-15.93-22-21.35-22a28.31,28.31,0,0,0-8.24,1.32,40.13,40.13,0,0,0-19.9,13.57l0.4-6.62-60,18.36c7.09-5.76,11.05-14.16,11.39-24.61l0.67-20.34a31,31,0,0,0,.57-12.3c-1.16-7.66-5.27-11.67-8.52-13.69a17.06,17.06,0,0,0-9.15-2.42A34,34,0,0,0,411.84,28a35.49,35.49,0,0,0-12.11,6.56,44.19,44.19,0,0,0-8.37,8.89,17.76,17.76,0,0,0-2.49-1.87,17.07,17.07,0,0,0-9.15-2.42,34,34,0,0,0-9.91,1.71,35.5,35.5,0,0,0-12.11,6.56,44.21,44.21,0,0,0-6.47,6.4l0.4-6.41L297.32,64,260.88,75.2,260.4,83a20.17,20.17,0,0,0-11.93-3.81,28.06,28.06,0,0,0-8.17,1.31,40.45,40.45,0,0,0-22.14,16.57q-1,1.53-2,3.14a19.2,19.2,0,0,0-14.54-6.33,24.87,24.87,0,0,0-5.47.64l0.24-3.77L160,101.92,159.21,114a20.17,20.17,0,0,0-12-3.84,28,28,0,0,0-8.17,1.31,40.45,40.45,0,0,0-22.14,16.57,55.15,55.15,0,0,0-7.74,17.69l-1.8-4.63,19.53-52.41L94.87,98.52l-2,5.39-1.47-3.78-8.37,1.73c-1.77.36-3.57,0.83-5.34,1.37C66.88,106.53,57,113.09,48.31,122.7l-0.08.09A56.21,56.21,0,0,0,39,137,30.37,30.37,0,0,0,36.35,154a22.59,22.59,0,0,0,2.82,8.37l0.11,0.19c3.17,5,8.43,7.82,14.82,7.82A29,29,0,0,0,62.62,169L70,166.75,51.92,216.35l30.85-9.44,4.41-11.77,3.68,9.3,36.74-11.24L126.76,191a25.18,25.18,0,0,0,3.64.27,35.85,35.85,0,0,0,10.41-1.71,35,35,0,0,0,14.25-8.41l-2.24,36.2,37-20.68,1.39-22.43q1.29-.26,2.63-0.67a40.28,40.28,0,0,0,13.29-6.65,39.18,39.18,0,0,0,8.58-9.39q0.76-1.17,1.44-2.39a21.83,21.83,0,0,0,14.53,5.15A35.87,35.87,0,0,0,242,158.61,35.1,35.1,0,0,0,257,149.52l-7,113.37,37-20.68,1.39-22.42q1.29-.26,2.63-0.67a40.26,40.26,0,0,0,13.28-6.65,39.13,39.13,0,0,0,8.59-9.39c0.46-.71.89-1.43,1.31-2.16a20.15,20.15,0,0,0,14.16,5.63,26.39,26.39,0,0,0,7.7-1.22,31.08,31.08,0,0,0,13.6-8.53,18.14,18.14,0,0,0,6.76,1.26,24.64,24.64,0,0,0,7.17-1.15,32.84,32.84,0,0,0,14.46-9,21,21,0,0,0-.52,8.74c1.52,10.06,7.76,13.77,11.34,15.08a21.44,21.44,0,0,0,7.43,1.27,30.78,30.78,0,0,0,9-1.45,31.29,31.29,0,0,0,14.75-9.64c5.2-6,8.08-13.93,8.56-23.48l0.19-3.19q0.75-.56,1.5-1.16a37.18,37.18,0,0,0,3.29-3,20.47,20.47,0,0,0,7,1.22,24,24,0,0,0,7-1.09,30.25,30.25,0,0,0,13.3-8.38,18.22,18.22,0,0,0,6.68,1.22,24.56,24.56,0,0,0,7.16-1.15,32.9,32.9,0,0,0,15.33-10,24.6,24.6,0,0,0,7.57,1.14A39.34,39.34,0,0,0,509,152.15a33.25,33.25,0,0,0,13.36-8.21,44.17,44.17,0,0,0,9.4-13.53C536.5,120,537.87,108.1,535.88,95ZM70.71,164.74l-1.05-6.93a11.12,11.12,0,0,0-2.26-5.19,11.75,11.75,0,0,1-.34-1.62,20.2,20.2,0,0,1,0-6.66L72.8,159Zm188.76-18"></path><path class="x_sl7-cls-2" d="M96.82,192l-9.9-25L75,198.71l-6.7,2.05,15.26-41.9L69.81,123.7a31.7,31.7,0,0,0-10.7,12.53,28,28,0,0,0-2.05,16.29q0.66,4.34,2.22,6.16a1.23,1.23,0,0,1,.38.65Q50.87,162,47.84,157.2a12.94,12.94,0,0,1-1.5-4.69,20.38,20.38,0,0,1,1.89-11.45,45.9,45.9,0,0,1,7.59-11.6Q67,117.06,80.68,112.88q2.25-.69,4.43-1.14l8.09,20.85,9.43-25.88,7.67-2.35L96.58,141.19l17.66,45.52Z"></path><path class="x_sl7-cls-3" d="M177.31,124.81q-5.62,8.84-18.12,14.85,0.93,15-5.08,26.09t-16.26,14.17q-12.66,3.87-17.68-4.12a17.13,17.13,0,0,1-2.36-6.67,49,49,0,0,1-.52-8.08,57.71,57.71,0,0,1,.87-8.89,46.62,46.62,0,0,1,7.14-18.45A30.46,30.46,0,0,1,142,121.15q14.1-4.32,16.69,12.8l0,0.1a11.42,11.42,0,0,0,1.84-.45,25.93,25.93,0,0,0,7.31-4.15,56.26,56.26,0,0,0,8-7.27Zm-27.19,18q-3.06.17-3.67-3.86a6.66,6.66,0,0,1,2.59-6.6,9.77,9.77,0,0,0-1.83-4.48q-1.1-1.14-3.67-.35-5,1.54-8,13.81T133.84,162q0.78,5.18,2,6.27a3.64,3.64,0,0,0,2.3,1.13,9.52,9.52,0,0,0,3-.52q3.75-1.15,6.48-8.72A49.09,49.09,0,0,0,150.12,142.77Z"></path><path class="x_sl7-cls-4" d="M181.75,162.71L180,190.57l-16,8.94,5.57-90,15.82-4.84-0.55,8.6A23.57,23.57,0,0,1,197,104.77q9.49-2.9,13.73,5.11a23.2,23.2,0,0,1,2.15,7.15,71.21,71.21,0,0,1,.77,8.58,56.76,56.76,0,0,1-.47,9,52.12,52.12,0,0,1-2,9.08,34.67,34.67,0,0,1-4,8.42,28.94,28.94,0,0,1-6.38,7,30.17,30.17,0,0,1-10,4.91Q184.69,165.81,181.75,162.71Zm16.14-40.86q-1.35-8.9-6.87-7.21a9,9,0,0,0-3.74,2.51,14.32,14.32,0,0,0-3,5.08l-1.95,32q1.34,2.16,5.06,1a11.26,11.26,0,0,0,6.22-5.08q4.83-7.72,4.82-19.32A56.5,56.5,0,0,0,197.9,121.85Z"></path><path class="x_sl7-cls-5" d="M278.54,93.83q-5.62,8.84-18.12,14.85,0.93,15-5.08,26.09t-16.26,14.17q-12.66,3.87-17.68-4.12a17.13,17.13,0,0,1-2.36-6.67,49,49,0,0,1-.52-8.08,57.71,57.71,0,0,1,.87-8.89,46.63,46.63,0,0,1,7.14-18.45,30.46,30.46,0,0,1,16.72-12.57Q257.36,85.86,260,103l0,0.1a11.5,11.5,0,0,0,1.84-.45,25.94,25.94,0,0,0,7.31-4.15,56.26,56.26,0,0,0,8-7.27Zm-27.19,18q-3.06.17-3.67-3.86a6.67,6.67,0,0,1,2.59-6.6,9.78,9.78,0,0,0-1.83-4.48q-1.1-1.14-3.67-.35-5,1.54-8,13.81T235.08,131q0.78,5.18,2,6.27a3.64,3.64,0,0,0,2.3,1.13,9.52,9.52,0,0,0,3-.52q3.75-1.15,6.48-8.72A49.05,49.05,0,0,0,251.36,111.79Z"></path><path class="x_sl7-cls-6" d="M311.2,111.66q0.67,4.4,4,3.38,5.79-1.77,7.36-12.16l2.25-36.66,15.82-4.84-2.42,38.85a18.25,18.25,0,0,0,.15,4q0.55,3.61,5.05,2.23,6.17-1.89,7.47-12.2l4.61-1.41q-4.07,22-19.09,26.59-9.76,3-12.37-6.84-4.9,12.12-14.71,15.12t-12.42-6.82Q292,133,282.17,136a11.43,11.43,0,0,1-8.82-.48q-3.84-2-4.86-8.75a35.27,35.27,0,0,1-.2-7.28l2.25-36.66L286.35,78,284,116.81a16.78,16.78,0,0,0,.14,3.13q0.67,4.4,3.94,3.39,5.79-1.77,7.36-12.16l2.25-36.66,15.82-4.84-2.37,38.83A13.15,13.15,0,0,0,311.2,111.66Z"></path><path class="x_sl7-cls-7" d="M396.76,80.16q-9.33,23.61-27.19,29.07-7.83,2.4-13.09-.13t-6.64-11.63a53.29,53.29,0,0,1,2.79-25.66A35.61,35.61,0,0,1,364,55.29a25.36,25.36,0,0,1,8.71-4.75q7.61-2.33,10.77-.37t3.86,6.62q1.39,9.16-5.2,17.88a36.33,36.33,0,0,1-16.63,12.45q0.19,3.12.38,4.37Q366.77,97,369,98.15t5.84,0a23.28,23.28,0,0,0,10.23-6A59.31,59.31,0,0,0,393,81.31Zm-18-21.5q-0.59-3.87-3.32-3-4,1.34-6.73,9.31a60.32,60.32,0,0,0-3.12,16.81q6.26-2.35,10.25-9.16A20.76,20.76,0,0,0,378.81,58.66Z"></path><path class="x_sl7-cls-8" d="M407.82,77.6q1.35,8.9,8.32,6.76a18.32,18.32,0,0,0,6.36-3.75,36.57,36.57,0,0,0,5.59-5.87Q427.54,91.5,411.51,96.4q-7.72,2.36-13-.16t-6.64-11.63A53.31,53.31,0,0,1,394.67,59a35.62,35.62,0,0,1,11.41-16.52,25.34,25.34,0,0,1,8.71-4.75q7.61-2.33,10.77-.37t3.86,6.62q1.39,9.21-5.17,17.9A36.35,36.35,0,0,1,407.6,74.27,18.55,18.55,0,0,0,407.82,77.6Zm13-31.8q-0.59-3.87-3.32-3-5.17,1.8-8.24,14.9a76,76,0,0,0-1.72,11.26q6.29-2.15,10.34-9A21,21,0,0,0,420.85,45.8Z"></path><path class="x_sl7-cls-9" d="M278.89,208.24l-1.73,27.85-16,8.94,5.57-90,15.82-4.84-0.55,8.6a23.57,23.57,0,0,1,12.12-8.53q9.49-2.9,13.73,5.11a23.2,23.2,0,0,1,2.15,7.15,71.21,71.21,0,0,1,.77,8.58,56.68,56.68,0,0,1-.47,9,52.19,52.19,0,0,1-2,9.08,34.66,34.66,0,0,1-4,8.42,28.91,28.91,0,0,1-6.38,7,30.17,30.17,0,0,1-10,4.91Q281.83,211.33,278.89,208.24ZM295,167.38q-1.35-8.9-6.87-7.21a9,9,0,0,0-3.74,2.51,14.33,14.33,0,0,0-3,5.08l-1.95,32q1.34,2.16,5.06,1a11.27,11.27,0,0,0,6.22-5.08q4.83-7.72,4.82-19.32A56.43,56.43,0,0,0,295,167.38Z"></path><path class="x_sl7-cls-9" d="M379.58,160.67q-4,22-19,26.58-9.71,3-12.27-6.54-5.7,12-15.27,15t-14.39-5.18a19.64,19.64,0,0,1-2.37-7.13,49.43,49.43,0,0,1-.53-8.65,54.14,54.14,0,0,1,1-9.11,48.52,48.52,0,0,1,7.51-18.23,26.57,26.57,0,0,1,14.48-10.73q4.72-1.44,7-.54a4,4,0,0,1,2.68,3.26l0.12,0.79,0.32-6.07,15.82-4.84-2.37,38.83a14.28,14.28,0,0,0,0,3.6q0.7,4.61,5.2,3.23,5.84-1.79,7.37-12.82ZM348.25,145a4.57,4.57,0,0,0-1.32-2.25q-1.17-1.26-4.23-.32t-5.47,5q-5.81,9.83-5.4,24.76a39.16,39.16,0,0,0,.44,4.74q0.72,4.76,3,6a3.77,3.77,0,0,0,3.12.25,10.46,10.46,0,0,0,5.57-4.36,16.16,16.16,0,0,0,2.65-8.07Z"></path><path class="x_sl7-cls-9" d="M403.46,168q-4.85,7.62-12.3,9.9-10,3.05-14.79-5.06a19.64,19.64,0,0,1-2.37-7.13,49.38,49.38,0,0,1-.53-8.66,54.1,54.1,0,0,1,1-9.11A48.5,48.5,0,0,1,382,129.7,26.57,26.57,0,0,1,396.49,119q4.72-1.44,7-.54a4,4,0,0,1,2.68,3.26l0.09,0.63,0.34-5.91,15.82-4.84-3.36,53a25.21,25.21,0,0,0,7.48-7.46q2.74-4.32,4-12.1l4.61-1.41q-2.09,15.1-11.4,22.54a40.25,40.25,0,0,1-5,3.44l-0.49,8.25q-0.53,10.95-6.11,17.42a21.25,21.25,0,0,1-10.06,6.58q-6,1.82-9.93.36t-4.84-7.12Q385.95,185.33,403,174Zm2.52-40.8a3.09,3.09,0,0,0-2.84-2.8,4.5,4.5,0,0,0-2.27.2,10.61,10.61,0,0,0-5.9,5.14q-5.81,9.83-5.4,24.76a39,39,0,0,0,.44,4.74q0.72,4.76,3,6a3.7,3.7,0,0,0,3.07.27,10.49,10.49,0,0,0,5.34-4,14.87,14.87,0,0,0,2.78-7.23Zm-3.31,52.6q-10.15,7-9.35,12.39a2.86,2.86,0,0,0,2.57,2.55,5.22,5.22,0,0,0,2.08-.31q1.34-.41,2.76-3.28a21.86,21.86,0,0,0,1.75-8.07Z"></path><path class="x_sl7-cls-9" d="M490.68,126.67q-4,22-19,26.58-9.81,3-12.42-6.82-4.9,12.12-14.71,15.12a11.43,11.43,0,0,1-8.82-.48q-3.84-2-4.86-8.75a35.31,35.31,0,0,1-.2-7.28l2.25-36.66,15.82-4.84-2.37,38.83a16.81,16.81,0,0,0,.14,3.13q0.66,4.4,3.94,3.4,5.79-1.77,7.36-12.16L460,100.08l15.82-4.84-2.37,38.83a15.42,15.42,0,0,0,.09,3.92q0.55,3.66,5.06,2.28,6.17-1.89,7.47-12.2Z"></path><path class="x_sl7-cls-9" d="M506.09,142.49q-9.28,2.84-14.55.24T485,132.09a47.28,47.28,0,0,1-.07-14.9Q489.67,90,509.25,84q14.1-4.32,16.65,12.48t-3.29,29.76a33.92,33.92,0,0,1-7.23,10.43A23.19,23.19,0,0,1,506.09,142.49ZM508,131.83q2.9-.89,4.95-4.75,4-7.91,4.08-20.14a59.41,59.41,0,0,0-.5-10,15.22,15.22,0,0,0-1.75-5.82q-1.13-1.68-3.86-.85-5.2,1.59-8.17,13.86t-1.69,20.7q0.78,5.18,2,6.27a3.64,3.64,0,0,0,2.3,1.13A8.4,8.4,0,0,0,508,131.83Z"></path></svg>